<?xml version="1.0" encoding="UTF-8"?>
<svg id="Layer_1" data-name="Layer 1" xmlns="http://www.w3.org/2000/svg" viewBox="0 0 30.72 26.57">
  <defs>
    <style>
      .cls-1 {
        fill: #fff;
      }
    </style>
  </defs>
  <path class="cls-1" d="M20.32,0c3.56,0,6.45,2.89,6.45,6.45v.06s3.35-.9,3.35-.9c.26-.07.52.08.59.34.01.04.02.08.02.12h0v17.36c0,.23-.16.43-.38.47l-9.89,2.65h0s0,0,0,0h-.04s0,0,0,0h0s0,0,0,0h-.03s-.02,0-.02,0h-.03s-.03,0-.03,0h0s0,0,0,0h0s-.04,0-.04,0h0s0,0,0,0l-9.8-2.62L.6,26.56c-.26.07-.52-.08-.59-.34-.01-.04-.02-.08-.02-.12h0V8.73c0-.23.16-.43.38-.47l9.89-2.65h0s0,0,0,0h.04s0,0,0,0h0s0,0,0,0h.03s.02,0,.02,0h.03s.03,0,.03,0h0s0,0,0,0h0s.04,0,.04,0h0s0,0,0,0l3.35.9v-.06C13.87,2.89,16.76,0,20.32,0ZM20.32,3.69c.76,0,1.45.31,1.95.81h0s0,.01,0,.01c.49.5.8,1.19.8,1.94s-.31,1.45-.81,1.95h0s0,.01,0,.01c-.5.5-1.19.8-1.94.8s-1.45-.31-1.95-.81h0s0-.01,0-.01c-.5-.5-.8-1.19-.8-1.94s.31-1.45.81-1.95h0s0-.01,0-.01c.5-.49,1.19-.8,1.94-.8ZM21.6,5.17c-.32-.32-.78-.53-1.28-.53s-.95.2-1.27.53h0c-.33.33-.53.78-.53,1.28s.2.95.53,1.28h0c.32.33.78.53,1.27.53s.95-.2,1.28-.53h0c.33-.33.53-.78.53-1.28s-.2-.95-.53-1.27h0ZM26.69,7.52c-.39,2.66-2.23,4.78-4.04,6.63-.31.33-.64.65-.96.97-.06.06-.13.12-.2.18h0c-.22.19-.45.31-.69.38v9.79l8.96-2.4V6.7l-3.07.82ZM19.84,15.66h0s-.02,0-.02,0h0c-.54-.18-.94-.61-1.32-1l-.06-.06c-1.95-1.96-4.06-4.21-4.49-7.07l-3.07-.82v16.37l8.96,2.4v-9.8ZM19.35,14.16l.04.04c.46.46.91.94,1.63.25,2.22-2.22,4.79-4.67,4.79-7.99,0-3.03-2.46-5.49-5.49-5.49s-5.49,2.46-5.49,5.49c0,3.19,2.45,5.63,4.52,7.7ZM9.92,23.07V6.7L.96,9.1v16.37l8.96-2.4Z"/>
</svg>