<?xml version="1.0" encoding="UTF-8"?>
<svg id="Layer_1" data-name="Layer 1" xmlns="http://www.w3.org/2000/svg" viewBox="0 0 30.37 32">
  <defs>
    <style>
      .cls-1 {
        fill: #fff;
      }
    </style>
  </defs>
  <path class="cls-1" d="M8.69,2.05h2.88v-.03c0-.55.23-1.06.59-1.43h0s0,0,0,0h0c.37-.37.87-.59,1.43-.59h3.17c.56,0,1.06.23,1.43.6h0c.37.37.59.87.59,1.43v.03h2.88c1.45,0,2.77.59,3.72,1.55l.03.03c.94.95,1.52,2.26,1.52,3.69v9.92h1.45c.54,0,1.03.22,1.39.58h0s0,0,0,0c.35.36.57.85.57,1.38v8.59c0,.54-.22,1.03-.58,1.39h0s0,0,0,0c-.36.35-.85.57-1.38.57h-1.46c-.05.58-.31,1.11-.71,1.5h0s0,0,0,0h0c-.44.44-1.05.72-1.72.72H5.86c-.67,0-1.28-.27-1.72-.72h0s0,0,0,0h0c-.39-.4-.65-.92-.71-1.5h-1.46c-.54,0-1.03-.22-1.38-.57h0s0,0,0,0c-.36-.36-.58-.85-.58-1.39v-8.59c0-.54.22-1.03.57-1.38h0s0,0,0,0c.36-.36.85-.58,1.39-.58h1.45V7.32c0-1.45.59-2.77,1.55-3.72.96-.95,2.27-1.55,3.72-1.55ZM12.58,2.05h5.22v-.03c0-.28-.12-.54-.3-.72h0s0,0,0,0c-.18-.18-.44-.3-.72-.3h-3.17c-.28,0-.54.11-.72.3h0c-.18.19-.3.44-.3.72v.03ZM21.68,3.05h-12.98c-1.17,0-2.24.48-3.02,1.25-.77.77-1.25,1.84-1.25,3.02v22.24c0,.39.16.75.41,1.01h0s0,0,0,0c.26.26.62.42,1.02.42h18.64c.39,0,.75-.16,1.01-.41h0s0,0,0,0c.26-.26.42-.62.42-1.02V7.32c0-1.16-.47-2.22-1.23-2.99l-.02-.02c-.77-.77-1.84-1.25-3.02-1.25ZM26.95,18.25v10.53h1.45c.27,0,.51-.11.69-.28h0c.17-.18.28-.42.28-.69v-8.59c0-.27-.11-.51-.28-.69h0c-.18-.18-.42-.29-.69-.29h-1.45ZM26.23,31.28c-.19.19-.51.19-.7,0M4.14,31.28c-.19-.2-.19-.51,0-.7M3.42,28.78v-10.53h-1.45c-.27,0-.51.11-.69.28h0c-.17.18-.28.42-.28.69v8.59c0,.27.11.51.28.69h0c.18.18.42.29.69.29h1.45ZM7.39,18.06h15.59c.33,0,.63.13.84.35l.03.03c.2.21.32.5.32.81v7.06c0,.73-.3,1.39-.78,1.88h0s0,0,0,0h0c-.48.48-1.15.78-1.87.78h-12.66c-.73,0-1.39-.3-1.88-.78h0s0,0,0,0h0c-.48-.48-.78-1.15-.78-1.88v-7.06c0-.33.13-.62.35-.84h0c.22-.22.51-.35.84-.35ZM22.98,19.06H7.39c-.05,0-.1.02-.13.06h0s0,0,0,0c-.03.03-.05.08-.05.13v7.06c0,.46.19.87.49,1.17h0c.3.3.71.49,1.17.49h12.66c.46,0,.87-.19,1.17-.49h0c.3-.3.49-.72.49-1.17v-7.06s-.02-.09-.04-.12h-.01s-.08-.07-.13-.07ZM6.7,9.84c-.28,0-.5-.22-.5-.5s.22-.5.5-.5h16.97c.28,0,.5.22.5.5s-.22.5-.5.5h-13.98v1.15c0,.28-.22.5-.5.5s-.5-.22-.5-.5v-1.15h-2Z"/>
</svg>